<svg width="16" height="16" viewBox="0 0 16 16" xmlns="http://www.w3.org/2000/svg"><path d="M4.55801813,4.25591468e-17 L11.4419819,1.84149388e-16 C13.0269041,-1.06996098e-16 13.6016352,0.165023309 14.181059,0.474902584 C14.7604829,0.78478186 15.2152181,1.2395171 15.5250974,1.81894097 C15.8349767,2.39836484 16,2.97309593 16,4.55801813 L16,11.4419819 C16,13.0269041 15.8349767,13.6016352 15.5250974,14.181059 C15.2152181,14.7604829 14.7604829,15.2152181 14.181059,15.5250974 C13.6016352,15.8349767 13.0269041,16 11.4419819,16 L4.55801813,16 C2.97309593,16 2.39836484,15.8349767 1.81894097,15.5250974 C1.2395171,15.2152181 0.78478186,14.7604829 0.474902584,14.181059 C0.165023309,13.6016352 -6.03934557e-17,13.0269041 1.03942276e-16,11.4419819 L1.22766259e-16,4.55801813 C-7.13307317e-17,2.97309593 0.165023309,2.39836484 0.474902584,1.81894097 C0.78478186,1.2395171 1.2395171,0.78478186 1.81894097,0.474902584 C2.39836484,0.165023309 2.97309593,-2.47280899e-17 4.55801813,4.25591468e-17 Z" fill-rule="evenodd"/></svg>